<svg width="20" height="20" viewBox="0 0 20 20" fill="none" xmlns="http://www.w3.org/2000/svg">
<path id="invite-friends-icon" fill-rule="evenodd" clip-rule="evenodd" d="M16.6266 3.52202H19.5178C19.7838 3.52202 19.9996 3.74742 19.9996 4.02516C19.9996 4.30289 19.7838 4.52831 19.5178 4.52831H16.6266V7.54716C16.6266 7.82491 16.4108 8.05031 16.1448 8.05031C15.8788 8.05031 15.6629 7.82491 15.6629 7.54716V4.52831H12.7718C12.5058 4.52831 12.2899 4.30289 12.2899 4.02516C12.2899 3.74742 12.5058 3.52202 12.7718 3.52202H15.6629V0.503143C15.6629 0.225403 15.8788 0 16.1448 0C16.4108 0 16.6266 0.225403 16.6266 0.503143V3.52202ZM3.21803 7.35269C3.4079 7.86063 3.85506 9.01233 4.19356 9.54289L4.23163 9.60352L4.23183 9.60384C4.50676 10.0419 5.0184 10.8571 6.62669 10.8571C8.23441 10.8571 8.74613 10.0423 9.02103 9.60452L9.06006 9.54289C9.3988 9.01257 9.84573 7.86063 10.0356 7.35269C10.3464 7.2083 10.5634 6.88277 10.5634 6.5054V5.65634C10.5634 5.33031 10.4013 5.04301 10.1568 4.87747V4.59546C10.1568 2.55295 8.83696 1.33333 6.62669 1.33333C4.41641 1.33333 3.09662 2.55295 3.09662 4.59546V4.88226C2.85376 5.0498 2.68993 5.3376 2.68993 5.65634V6.5054C2.69017 6.88251 2.90724 7.20804 3.21803 7.35269ZM3.65389 5.72881C3.8842 5.69131 4.06056 5.48277 4.06056 5.2317V4.59521C4.06056 3.11949 4.94815 2.33937 6.62692 2.33937C8.30571 2.33937 9.1933 3.11949 9.1933 4.59521V5.2317C9.1933 5.48277 9.36942 5.69107 9.59998 5.72881V6.43221C9.4306 6.46013 9.28557 6.58113 9.22389 6.75246C9.05982 7.20956 8.56641 8.50163 8.2585 8.98415L8.21512 9.05232C7.99179 9.40805 7.71399 9.85057 6.62669 9.85057C5.53926 9.85057 5.26141 9.40804 5.03815 9.05241L5.03777 9.05182L4.99512 8.98441C4.6877 8.50214 4.1938 7.2093 4.02948 6.7522C3.9678 6.58063 3.82301 6.45987 3.6534 6.43195V5.72881H3.65389ZM1.43156 11.8385H11.8216C12.2805 11.8385 12.694 12.0279 12.9566 12.358C13.2103 12.677 13.3062 13.0961 13.2267 13.5381C13.1164 14.1521 12.566 14.72 12.2369 15.0597L12.2362 15.0604L12.1627 15.1366L8.12839 19.3492C7.75737 19.7363 7.26563 19.9643 6.73848 19.9947C6.71872 19.9977 6.69849 19.9995 6.67801 20H6.5867C6.56381 20 6.54115 19.9982 6.51924 19.995C5.99088 19.9658 5.4977 19.7376 5.12547 19.3494L1.01717 15.0604C0.68805 14.7207 0.137055 14.1522 0.0267035 13.5379C-0.0525507 13.0958 0.0435797 12.6767 0.297272 12.3575C0.559647 12.0277 0.973069 11.8385 1.43156 11.8385ZM12.2793 13.3527C12.2244 13.6579 11.7748 14.1218 11.5587 14.3444L7.44681 18.6375C7.23744 18.8561 6.95628 18.9819 6.65512 18.9914L6.65343 18.9915L6.65294 18.9915C6.64687 18.9918 6.64066 18.992 6.63464 18.9924H6.62669L6.62042 18.9927C6.61321 18.9922 6.60548 18.9917 6.59827 18.9914C6.29735 18.9819 6.01642 18.8561 5.80705 18.6377L1.77248 14.4252L1.69466 14.3447L1.69397 14.3439C1.4776 14.1208 1.02867 13.6578 0.974045 13.3532C0.955964 13.2523 0.952592 13.1092 1.03909 13.0007C1.11763 12.9016 1.26074 12.845 1.43181 12.845H11.8218C11.9929 12.845 12.1362 12.9019 12.215 13.001C12.301 13.1089 12.2974 13.2518 12.2793 13.3527Z" fill="white"/>
</svg>
