<svg width="15" height="20" viewBox="0 0 15 20" fill="none" xmlns="http://www.w3.org/2000/svg">
<path fill-rule="evenodd" clip-rule="evenodd" d="M13.9788 14.4288C13.9788 14.5717 14.0471 14.7145 14.1494 14.7503C15.5189 15.2888 15.1715 17.5003 13.5698 17.5H10.1945C10.024 18.8928 8.86483 20 7.50106 20C6.13729 20 4.97811 18.8928 4.8077 17.5H1.43245C-0.189493 17.5 -0.503824 15.2835 0.852865 14.7499C0.955038 14.7145 1.02328 14.5713 1.02328 14.4288V8.92873C1.02328 7.07156 1.73922 5.32153 3.00069 4.03579C3.95528 3.1072 5.11458 2.46433 6.37594 2.25004C6.23958 2.00004 6.13729 1.71432 6.13729 1.4286C6.13729 0.642868 6.75106 0 7.50106 0C8.25118 0 8.86483 0.642868 8.86483 1.4286C8.86483 1.75003 8.79659 2.00004 8.62618 2.25004C11.6264 2.82148 13.9788 5.67867 13.9788 9.07159V14.4288ZM8.18294 1.4286C8.18294 1.03574 7.87606 0.714302 7.50106 0.714302C7.12606 0.714302 6.81917 1.03574 6.81917 1.4286C6.81917 1.82146 7.12606 2.1429 7.50106 2.1429C7.87606 2.1429 8.18294 1.82146 8.18294 1.4286ZM7.50106 19.2861C6.47835 19.2861 5.65999 18.5003 5.48958 17.5003H9.51266C9.34212 18.5003 8.52389 19.2861 7.50106 19.2861ZM1.43233 16.786H13.5697C14.42 16.786 14.5761 15.6553 13.9106 15.3928C13.5356 15.2503 13.297 14.857 13.297 14.4288V9.07159C13.297 5.73939 10.7373 2.85719 7.50106 2.85719C6.00094 2.85719 4.56893 3.46435 3.47799 4.57151C2.31881 5.71439 1.70504 7.25013 1.70504 8.92873V14.4288C1.70504 14.8574 1.46639 15.2503 1.09139 15.3931C0.346761 15.8392 0.712972 16.786 1.43233 16.786Z" fill="#2C3E51"/>
</svg>
